<?xml version="1.0" standalone="no"?>
<!DOCTYPE svg PUBLIC "-//W3C//DTD SVG 20010904//EN"
 "http://www.w3.org/TR/2001/REC-SVG-20010904/DTD/svg10.dtd">
<svg version="1.0" xmlns="http://www.w3.org/2000/svg"
 width="969.000000pt" height="207.000000pt" viewBox="0 0 969.000000 207.000000"
 preserveAspectRatio="xMidYMid meet">

<g transform="translate(0.000000,207.000000) scale(0.100000,-0.100000)"
fill="#000000" stroke="none">
<path d="M1435 1140 l-900 -900 105 -105 105 -105 900 900 900 900 -105 105
-105 105 -900 -900z"/>
<path d="M3803 1851 c-103 -27 -163 -111 -163 -232 0 -111 40 -165 168 -225
154 -72 162 -77 197 -116 47 -52 61 -104 46 -172 -19 -86 -75 -126 -174 -126
-97 0 -145 52 -155 167 l-5 63 -38 0 -38 0 5 -52 c11 -98 24 -131 69 -174 88
-85 256 -85 341 0 47 47 64 93 64 179 0 119 -50 176 -233 266 -158 77 -172 93
-172 203 0 62 4 82 21 105 31 43 80 63 151 63 58 0 66 -3 102 -35 42 -39 61
-90 61 -169 0 -45 1 -46 31 -46 l31 0 -3 83 c-5 103 -28 151 -92 191 -37 23
-61 29 -114 32 -38 2 -82 -1 -100 -5z"/>
<path d="M8741 1845 c-56 -17 -96 -56 -118 -114 -16 -40 -18 -83 -18 -346 0
-285 1 -302 21 -346 42 -91 142 -132 270 -111 81 13 128 42 157 96 19 36 22
59 25 202 l4 161 -78 6 c-42 4 -99 7 -126 7 -47 0 -48 -1 -48 -30 l0 -29 93
-3 92 -3 0 -125 c0 -113 -2 -129 -23 -161 -42 -69 -182 -94 -253 -46 -67 44
-69 58 -69 386 0 277 1 297 21 337 38 79 148 107 239 62 55 -28 78 -71 87
-162 6 -65 6 -66 36 -66 l30 0 -5 78 c-7 122 -50 185 -143 211 -53 15 -140 13
-194 -4z"/>
<path d="M9301 1845 c-92 -29 -140 -106 -141 -223 0 -78 18 -129 60 -167 12
-11 80 -49 153 -85 164 -82 190 -109 195 -208 4 -83 -16 -127 -73 -160 -57
-32 -161 -28 -201 8 -34 32 -50 71 -59 143 l-7 57 -36 0 -35 0 6 -64 c8 -83
40 -151 86 -181 92 -61 247 -55 325 14 30 27 56 87 62 148 14 135 -38 204
-222 294 -139 69 -179 105 -190 174 -7 51 11 122 39 153 35 38 72 52 135 52
107 0 162 -62 162 -182 l0 -68 35 0 35 0 0 58 c0 164 -84 253 -235 251 -27 0
-70 -6 -94 -14z"/>
<path d="M4220 1390 l0 -460 40 0 40 0 0 460 0 460 -40 0 -40 0 0 -460z"/>
<path d="M4420 1391 l0 -461 25 0 25 0 0 387 c0 228 4 383 9 378 5 -6 55 -124
112 -263 l103 -253 35 3 34 3 106 255 106 255 3 -383 2 -382 30 0 30 0 0 461
0 460 -32 -3 -33 -3 -116 -279 c-64 -154 -120 -286 -125 -294 -6 -9 -47 78
-131 280 -120 289 -122 293 -152 296 l-31 3 0 -460z"/>
<path d="M5170 1391 l0 -461 30 0 30 0 2 173 3 172 110 5 c97 5 116 9 163 35
93 51 135 132 134 260 -1 127 -39 201 -127 248 -35 19 -60 22 -192 25 l-153 4
0 -461z m273 388 c49 -13 103 -61 117 -105 17 -51 15 -164 -5 -210 -35 -85
-97 -117 -233 -118 l-87 -1 -3 223 -2 222 87 0 c49 0 105 -5 126 -11z"/>
<path d="M5730 1390 l0 -460 190 0 190 0 0 35 0 35 -160 0 -160 0 0 425 0 425
-30 0 -30 0 0 -460z"/>
<path d="M6180 1390 l0 -460 230 0 230 0 0 35 0 35 -200 0 -200 0 0 190 0 190
190 0 190 0 0 25 0 25 -190 0 -190 0 0 175 0 175 195 0 195 0 0 35 0 35 -225
0 -225 0 0 -460z"/>
<path d="M6700 1820 l0 -29 98 -3 97 -3 3 -427 2 -428 35 0 35 0 0 430 0 430
100 0 100 0 0 30 0 30 -235 0 -235 0 0 -30z"/>
<path d="M7220 1390 l0 -460 35 0 35 0 0 215 0 215 170 0 170 0 0 -215 0 -215
35 0 35 0 0 460 0 460 -35 0 -35 0 -2 -212 -3 -213 -167 -3 -168 -2 0 215 0
215 -35 0 -35 0 0 -460z"/>
<path d="M7810 1390 l0 -460 40 0 40 0 0 460 0 460 -40 0 -40 0 0 -460z"/>
<path d="M8010 1391 l0 -461 30 0 30 0 0 392 c0 215 3 388 7 385 3 -4 84 -179
179 -390 l172 -382 41 -3 41 -3 0 460 0 461 -35 0 -35 0 0 -372 c0 -243 -3
-369 -10 -362 -5 5 -86 171 -180 369 l-170 360 -35 3 -35 3 0 -460z"/>
<path d="M337 1332 l-297 -297 215 -215 215 -215 105 105 105 105 -110 110
-110 110 195 195 195 195 -102 102 c-57 57 -105 103 -108 103 -3 0 -139 -134
-303 -298z"/>
<path d="M2502 1357 l-102 -102 110 -110 110 -110 -195 -195 -195 -195 105
-105 105 -105 300 300 300 300 -212 212 c-117 117 -215 213 -218 213 -3 0 -51
-46 -108 -103z"/>
<path d="M3640 430 l0 -200 60 0 c72 0 114 19 135 60 25 48 19 88 -17 124
l-33 33 23 33 c26 39 27 49 8 95 -16 38 -58 55 -133 55 l-43 0 0 -200z m140
150 c24 -24 26 -67 4 -98 -12 -18 -25 -22 -65 -22 l-49 0 0 70 0 70 45 0 c32
0 51 -6 65 -20z m14 -171 c21 -16 26 -29 26 -64 0 -58 -32 -85 -101 -85 l-49
0 0 85 0 85 49 0 c34 0 56 -6 75 -21z"/>
<path d="M3932 454 l3 -176 28 -24 c20 -17 40 -24 72 -24 97 0 105 19 105 235
0 140 -2 165 -15 165 -13 0 -15 -25 -15 -164 0 -145 -2 -166 -19 -187 -26 -32
-86 -32 -112 0 -17 21 -19 42 -19 187 0 143 -2 164 -16 164 -14 0 -15 -21 -12
-176z"/>
<path d="M4250 430 c0 -171 2 -200 15 -200 13 0 15 29 15 200 0 171 -2 200
-15 200 -13 0 -15 -29 -15 -200z"/>
<path d="M4390 430 l0 -200 80 0 c64 0 80 3 80 15 0 12 -14 15 -65 15 l-65 0
0 185 c0 158 -2 185 -15 185 -13 0 -15 -29 -15 -200z"/>
<path d="M4630 430 l0 -200 60 0 c118 0 140 31 140 198 0 60 -5 124 -11 142
-15 40 -58 60 -134 60 l-55 0 0 -200z m144 147 c27 -27 39 -117 27 -214 -10
-82 -29 -103 -93 -103 l-48 0 0 170 0 170 45 0 c34 0 52 -6 69 -23z"/>
<path d="M5080 430 c0 -171 2 -200 15 -200 12 0 15 17 15 90 l0 90 80 0 c64 0
80 3 80 15 0 12 -16 15 -80 15 l-80 0 0 80 0 80 80 0 c64 0 80 3 80 15 0 12
-17 15 -95 15 l-95 0 0 -200z"/>
<path d="M5360 431 c0 -122 4 -201 10 -201 5 0 10 37 12 83 l3 82 40 0 c40 0
40 0 83 -82 24 -46 49 -83 57 -83 21 0 20 2 -26 86 l-41 74 31 35 c26 30 31
44 31 85 0 40 -5 56 -28 81 -25 28 -35 32 -100 37 l-72 5 0 -202z m151 143
c16 -18 24 -37 24 -65 0 -56 -29 -81 -99 -87 l-56 -4 0 91 0 91 53 0 c44 0 58
-4 78 -26z"/>
<path d="M5693 606 c-27 -24 -28 -27 -31 -146 -6 -200 8 -230 103 -230 95 0
109 30 103 230 -3 119 -4 122 -31 146 -39 33 -105 33 -144 0z m130 -28 c14
-17 17 -41 17 -150 0 -124 -1 -130 -25 -153 -31 -32 -69 -32 -100 0 -24 23
-25 30 -25 150 0 70 5 135 11 146 22 42 89 46 122 7z"/>
<path d="M5970 431 c0 -127 4 -201 10 -201 6 0 10 63 10 168 l1 167 46 -112
c32 -78 52 -113 63 -113 11 0 31 35 63 113 l46 112 1 -167 c0 -143 2 -168 15
-168 13 0 15 29 15 201 0 182 -2 200 -17 197 -11 -2 -34 -45 -67 -126 -27 -67
-53 -122 -56 -122 -3 0 -28 55 -56 122 -27 67 -55 123 -62 126 -9 3 -12 -45
-12 -197z"/>
<path d="M6525 607 c-35 -29 -45 -96 -20 -133 9 -14 38 -35 63 -46 26 -11 59
-32 75 -46 53 -50 23 -132 -48 -132 -38 0 -62 24 -71 68 -4 19 -13 32 -21 32
-24 0 -7 -71 23 -97 19 -17 37 -23 73 -23 57 0 89 27 98 83 8 54 -20 92 -94
127 -34 16 -67 38 -73 49 -19 36 -12 78 16 100 52 41 110 17 120 -50 8 -51 24
-50 24 1 0 58 -34 90 -94 90 -32 0 -52 -6 -71 -23z"/>
<path d="M6815 605 c-24 -23 -25 -28 -25 -178 0 -140 2 -155 20 -175 16 -17
32 -22 69 -22 59 0 81 21 88 85 7 54 -12 62 -20 9 -11 -66 -65 -95 -113 -60
-17 13 -19 27 -19 166 0 139 2 153 19 166 27 19 70 18 89 -3 8 -10 18 -35 22
-55 8 -42 25 -52 25 -14 0 37 -20 86 -40 96 -35 19 -89 12 -115 -15z"/>
<path d="M7080 431 c0 -122 4 -201 10 -201 5 0 10 37 12 83 l3 82 40 0 c39 0
41 -1 82 -75 24 -41 44 -79 46 -83 1 -5 10 -8 19 -6 13 3 8 18 -29 82 l-44 78
30 35 c39 43 47 75 32 125 -16 52 -47 71 -131 77 l-70 5 0 -202z m155 144 c42
-41 28 -123 -25 -145 -15 -6 -45 -10 -66 -8 l-39 3 -3 88 -3 87 56 0 c46 0 60
-4 80 -25z"/>
<path d="M7486 578 c-8 -29 -31 -111 -51 -183 -20 -72 -38 -138 -41 -147 -3
-11 0 -18 8 -18 8 0 20 23 28 58 l15 57 65 0 65 0 15 -57 c8 -34 20 -58 27
-58 15 0 18 -13 -47 222 -26 94 -52 174 -58 176 -6 2 -18 -21 -26 -50z m79
-185 c5 -22 3 -23 -55 -23 -54 0 -61 2 -56 18 3 9 15 53 26 97 12 44 24 87 27
95 5 13 19 -34 58 -187z"/>
<path d="M7660 615 c0 -11 12 -15 45 -15 l45 0 0 -185 c0 -158 2 -185 15 -185
13 0 15 27 15 185 l0 185 40 0 c29 0 40 4 40 15 0 12 -18 15 -100 15 -82 0
-100 -3 -100 -15z"/>
<path d="M7965 605 c-24 -23 -25 -28 -25 -173 0 -136 2 -152 21 -176 30 -38
108 -38 138 0 13 17 21 41 21 65 0 52 -16 50 -23 -3 -3 -23 -14 -48 -23 -55
-23 -17 -65 -16 -90 1 -17 13 -19 30 -22 153 -4 129 -2 140 18 166 21 27 61
36 86 19 18 -11 34 -48 34 -76 0 -14 5 -26 11 -26 21 0 4 92 -21 112 -33 27
-95 24 -125 -7z"/>
<path d="M8230 430 c0 -169 2 -200 15 -200 11 0 15 19 17 93 l3 92 70 0 70 0
3 -92 c2 -74 6 -93 17 -93 13 0 15 31 15 200 0 171 -2 200 -15 200 -12 0 -15
-17 -15 -95 l0 -95 -75 0 -75 0 0 95 c0 78 -3 95 -15 95 -13 0 -15 -29 -15
-200z"/>
</g>
</svg>
